<!-- Created with Inkscape (http://www.inkscape.org/) -->
<svg width="176.22mm" height="60.616mm" version="1.1" viewBox="0 0 176.22 60.616" xmlns="http://www.w3.org/2000/svg">
 <g transform="translate(-2.7688 -5.6031)">
  <rect x="2.7688" y="5.6031" width="176.22" height="60.616" fill="#fff" stop-color="#000000" stroke-linecap="round" stroke-linejoin="round" stroke-width="1.6"/>
  <g font-family="'Bodoni MT'" font-size="4.9389px" letter-spacing=".010583px" stroke-width=".26458" word-spacing="0px">
   <text x="5.6896539" y="12.833671" style="font-variant-caps:normal;font-variant-east-asian:normal;font-variant-ligatures:normal;font-variant-numeric:normal;line-height:1.25" xml:space="preserve"><tspan x="5.6896539" y="12.833671">Critic</tspan><tspan x="5.6896539" y="19.007282">Rose</tspan><tspan x="5.6896539" y="25.180895">Seymour</tspan><tspan x="5.6896539" y="31.354507">Puig</tspan><tspan x="5.6896539" y="37.528122">LaSalle</tspan><tspan x="5.6896539" y="43.701733">Matthews</tspan><tspan x="5.6896539" y="49.875347">Total</tspan><tspan x="5.6896539" y="56.048958">Sim.Sum</tspan><tspan x="5.6896539" y="62.222572">Total/Sim.Sum</tspan></text>
   <text x="35.678658" y="12.833671" style="font-variant-caps:normal;font-variant-east-asian:normal;font-variant-ligatures:normal;font-variant-numeric:normal;line-height:1.25" xml:space="preserve"><tspan x="35.678658" y="12.833671">Similarity</tspan><tspan x="35.678658" y="19.007282">0.99</tspan><tspan x="35.678658" y="25.180895">0.38</tspan><tspan x="35.678658" y="31.354507">0.89</tspan><tspan x="35.678658" y="37.528122">0.92</tspan><tspan x="35.678658" y="43.701733">0.66</tspan></text>
   <text x="59.786419" y="12.795087" style="font-variant-caps:normal;font-variant-east-asian:normal;font-variant-ligatures:normal;font-variant-numeric:normal;line-height:1.25" xml:space="preserve"><tspan x="59.786419" y="12.795087">Night...</tspan><tspan x="59.786419" y="18.968699">3.0</tspan><tspan x="59.786419" y="25.142311">3.0</tspan><tspan x="59.786419" y="31.315924">4.5</tspan><tspan x="59.786419" y="37.489536">3.0</tspan><tspan x="59.786419" y="43.663151">3.0</tspan></text>
   <text x="79.90081" y="12.833671" style="font-variant-caps:normal;font-variant-east-asian:normal;font-variant-ligatures:normal;font-variant-numeric:normal;line-height:1.25" xml:space="preserve"><tspan x="79.90081" y="12.833671">S.xNight</tspan><tspan x="79.90081" y="19.007282">2.97</tspan><tspan x="79.90081" y="25.180895">1.14</tspan><tspan x="79.90081" y="31.354507">4.02</tspan><tspan x="79.90081" y="37.528122">2.77</tspan><tspan x="79.90081" y="43.701733">1.99</tspan><tspan x="79.90081" y="49.875347">12.89</tspan><tspan x="79.90081" y="56.048958">3.84</tspan><tspan x="79.90081" y="62.222572">3.35</tspan></text>
   <text x="102.68002" y="12.795087" style="font-variant-caps:normal;font-variant-east-asian:normal;font-variant-ligatures:normal;font-variant-numeric:normal;line-height:1.25" xml:space="preserve"><tspan x="102.68002" y="12.795087">Lady...</tspan><tspan x="102.68002" y="18.968699">2.5</tspan><tspan x="102.68002" y="25.142311">3.0</tspan><tspan x="102.68002" y="31.315924"/><tspan x="102.68002" y="37.489536">3.0</tspan><tspan x="102.68002" y="43.663151">3.0</tspan></text>
   <text x="120.17111" y="12.833671" style="font-variant-caps:normal;font-variant-east-asian:normal;font-variant-ligatures:normal;font-variant-numeric:normal;line-height:1.25" xml:space="preserve"><tspan x="120.17111" y="12.833671">S.xLady</tspan><tspan x="120.17111" y="19.007282">2.48</tspan><tspan x="120.17111" y="25.180895">1.14</tspan><tspan x="120.17111" y="31.354507"/><tspan x="120.17111" y="37.528122">2.77</tspan><tspan x="120.17111" y="43.701733">1.99</tspan><tspan x="120.17111" y="49.875347">8.38</tspan><tspan x="120.17111" y="56.048958">2.95</tspan><tspan x="120.17111" y="62.222572">2.83</tspan></text>
   <text x="140.11761" y="12.795087" style="font-variant-caps:normal;font-variant-east-asian:normal;font-variant-ligatures:normal;font-variant-numeric:normal;line-height:1.25" xml:space="preserve"><tspan x="140.11761" y="12.795087">Luck...</tspan><tspan x="140.11761" y="18.968699">3.0</tspan><tspan x="140.11761" y="25.142311">1.5</tspan><tspan x="140.11761" y="31.315924">3.0</tspan><tspan x="140.11761" y="37.489536">2.0</tspan></text>
   <text x="158.70215" y="12.833671" style="font-variant-caps:normal;font-variant-east-asian:normal;font-variant-ligatures:normal;font-variant-numeric:normal;line-height:1.25" xml:space="preserve"><tspan x="158.70215" y="12.833671">S.xLuck</tspan><tspan x="158.70215" y="19.007282">2.97</tspan><tspan x="158.70215" y="25.180895">0.57</tspan><tspan x="158.70215" y="31.354507">2.68</tspan><tspan x="158.70215" y="37.528122">1.85</tspan><tspan x="158.70215" y="43.701733"/><tspan x="158.70215" y="49.875347">8.07</tspan><tspan x="158.70215" y="56.048958">3.18</tspan><tspan x="158.70215" y="62.222572">2.53</tspan></text>
  </g>
  <rect x="3.8924" y="7.7198" width="173.97" height="7" fill="#b3b3b3" stop-color="#000000" stroke-linecap="round" stroke-linejoin="round" stroke-width="1.6" style="mix-blend-mode:multiply"/>
  <rect x="3.8924" y="57.461" width="173.97" height=".5" stop-color="#000000" stroke-linecap="round" stroke-linejoin="round" stroke-width="1.6" style="mix-blend-mode:multiply"/>
 </g>
</svg>
