<!-- Created with Inkscape (http://www.inkscape.org/) -->
<svg width="176.22mm" height="42.025mm" version="1.1" viewBox="0 0 176.22 42.025" xmlns="http://www.w3.org/2000/svg">
 <g transform="translate(-2.7688 -5.6031)">
  <rect x="2.7688" y="5.6031" width="176.22" height="42.025" fill="#fff" stop-color="#000000" stroke-linecap="round" stroke-linejoin="round" stroke-width="1.6"/>
  <g font-family="'Bodoni MT'" font-size="4.9389px" letter-spacing=".010583px" stroke-width=".26458" word-spacing="0px">
   <text x="5.6896539" y="12.833671" style="font-variant-caps:normal;font-variant-east-asian:normal;font-variant-ligatures:normal;font-variant-numeric:normal;line-height:1.25" xml:space="preserve"><tspan x="5.6896539" y="12.833671">Movie</tspan><tspan x="5.6896539" y="19.007282">Snakes</tspan><tspan x="5.6896539" y="25.180895">Superman</tspan><tspan x="5.6896539" y="31.354507">Dupree</tspan><tspan x="5.6896539" y="37.528122">Total</tspan><tspan x="5.6896539" y="43.701733">Normalized</tspan></text>
   <text x="35.678658" y="12.833671" style="font-variant-caps:normal;font-variant-east-asian:normal;font-variant-ligatures:normal;font-variant-numeric:normal;line-height:1.25" xml:space="preserve"><tspan x="35.678658" y="12.833671">Rating</tspan><tspan x="35.678658" y="19.007282">4.5</tspan><tspan x="35.678658" y="25.180895">4.0</tspan><tspan x="35.678658" y="31.354507">1.0</tspan></text>
   <text x="59.786419" y="12.795087" style="font-variant-caps:normal;font-variant-east-asian:normal;font-variant-ligatures:normal;font-variant-numeric:normal;line-height:1.25" xml:space="preserve"><tspan x="59.786419" y="12.795087">Night...</tspan><tspan x="59.786419" y="18.968699">0.182</tspan><tspan x="59.786419" y="25.142311">0.182</tspan><tspan x="59.786419" y="31.315924">0.148</tspan><tspan x="59.786419" y="37.489536">0.433</tspan></text>
   <text x="79.90081" y="12.833671" style="font-variant-caps:normal;font-variant-east-asian:normal;font-variant-ligatures:normal;font-variant-numeric:normal;line-height:1.25" xml:space="preserve"><tspan x="79.90081" y="12.833671">R.xNight</tspan><tspan x="79.90081" y="19.007282">0.818</tspan><tspan x="79.90081" y="25.180895">0.412</tspan><tspan x="79.90081" y="31.354507">0.148</tspan><tspan x="79.90081" y="37.528122">1.378</tspan><tspan x="79.90081" y="43.701733">3.183</tspan></text>
   <text x="102.68002" y="12.795087" style="font-variant-caps:normal;font-variant-east-asian:normal;font-variant-ligatures:normal;font-variant-numeric:normal;line-height:1.25" xml:space="preserve"><tspan x="102.68002" y="12.795087">Lady...</tspan><tspan x="102.68002" y="18.968699">0.222</tspan><tspan x="102.68002" y="25.142311">0.091</tspan><tspan x="102.68002" y="31.315924">0.4</tspan><tspan x="102.68002" y="37.489536">0.713</tspan></text>
   <text x="120.17111" y="12.833671" style="font-variant-caps:normal;font-variant-east-asian:normal;font-variant-ligatures:normal;font-variant-numeric:normal;line-height:1.25" xml:space="preserve"><tspan x="120.17111" y="12.833671">R.xLady</tspan><tspan x="120.17111" y="19.007282">0.999</tspan><tspan x="120.17111" y="25.180895">0.363</tspan><tspan x="120.17111" y="31.354507">0.4</tspan><tspan x="120.17111" y="37.528122">1.764</tspan><tspan x="120.17111" y="43.701733">2.473</tspan></text>
   <text x="140.11761" y="12.795087" style="font-variant-caps:normal;font-variant-east-asian:normal;font-variant-ligatures:normal;font-variant-numeric:normal;line-height:1.25" xml:space="preserve"><tspan x="140.11761" y="12.795087">Luck...</tspan><tspan x="140.11761" y="18.968699">0.105</tspan><tspan x="140.11761" y="25.142311">0.065</tspan><tspan x="140.11761" y="31.315924">0.182</tspan><tspan x="140.11761" y="37.489536">0.352</tspan></text>
   <text x="158.70215" y="12.833671" style="font-variant-caps:normal;font-variant-east-asian:normal;font-variant-ligatures:normal;font-variant-numeric:normal;line-height:1.25" xml:space="preserve"><tspan x="158.70215" y="12.833671">R.xLuck</tspan><tspan x="158.70215" y="19.007282">0.474</tspan><tspan x="158.70215" y="25.180895">0.258</tspan><tspan x="158.70215" y="31.354507">0.182</tspan><tspan x="158.70215" y="37.528122">0.914</tspan><tspan x="158.70215" y="43.701733">2.598</tspan><tspan x="158.70215" y="49.875347"/></text>
  </g>
  <rect x="3.8924" y="7.7198" width="173.97" height="7" fill="#b3b3b3" stop-color="#000000" stroke-linecap="round" stroke-linejoin="round" stroke-width="1.6" style="mix-blend-mode:multiply"/>
  <rect x="3.8924" y="38.941" width="173.97" height=".5" stop-color="#000000" stroke-linecap="round" stroke-linejoin="round" stroke-width="1.6" style="mix-blend-mode:multiply"/>
 </g>
</svg>
