<svg width="189.94mm" height="153.61mm" version="1.1" viewBox="0 0 189.94 153.61" xmlns="http://www.w3.org/2000/svg" xmlns:cc="http://creativecommons.org/ns#" xmlns:dc="http://purl.org/dc/elements/1.1/" xmlns:rdf="http://www.w3.org/1999/02/22-rdf-syntax-ns#">
 <metadata>
  <rdf:RDF>
   <cc:Work rdf:about="">
    <dc:format>image/svg+xml</dc:format>
    <dc:type rdf:resource="http://purl.org/dc/dcmitype/StillImage"/>
   </cc:Work>
  </rdf:RDF>
 </metadata>
 <g transform="translate(-13.178 -83.363)">
  <rect x="13.311" y="83.495" width="189.67" height="153.34" fill="#fff" stop-color="#000000" stroke="#fff" stroke-width=".26458px"/>
 </g>
 <g transform="translate(-13.178 -83.363)">
  <path d="m26.312 157.9c-0.58118 0.70246-1.3657 1.7581-0.69922 2.6562 1.5627 1.197 3.2776 2.2205 4.8979 3.3518 7.6944 5.166 15.386 10.336 23.077 15.508 6.0251-0.87438 12.051-1.7466 18.076-2.6172 0.5731-1.0552 1.5105-4.5784 0.13557-4.4898-5.3334 0.77244-13.493 2.2091-18.827 2.9805-9.2721-6.2324-17.24-11.377-26.512-17.61-0.04948 0.0736-0.09896 0.14714-0.14844 0.22071z" color="#000000" color-rendering="auto" dominant-baseline="auto" image-rendering="auto" shape-rendering="auto" solid-color="#000000" stop-color="#000000" style="font-feature-settings:normal;font-variant-alternates:normal;font-variant-caps:normal;font-variant-east-asian:normal;font-variant-ligatures:normal;font-variant-numeric:normal;font-variant-position:normal;font-variation-settings:normal;inline-size:0;isolation:auto;mix-blend-mode:normal;shape-margin:0;shape-padding:0;text-decoration-color:#000000;text-decoration-line:none;text-decoration-style:solid;text-indent:0;text-orientation:mixed;text-transform:none;white-space:normal"/>
  <path d="m34.508 163.74-1.5996 0.46485c5.7409 19.771 7.4391 36.278 4.5547 48.947l1.623 0.36914c2.9848-13.11 1.2072-29.857-4.5781-49.781z" color="#000000" color-rendering="auto" dominant-baseline="auto" image-rendering="auto" shape-rendering="auto" solid-color="#000000" stop-color="#000000" style="font-feature-settings:normal;font-variant-alternates:normal;font-variant-caps:normal;font-variant-east-asian:normal;font-variant-ligatures:normal;font-variant-numeric:normal;font-variant-position:normal;font-variation-settings:normal;inline-size:0;isolation:auto;mix-blend-mode:normal;shape-margin:0;shape-padding:0;text-decoration-color:#000000;text-decoration-line:none;text-decoration-style:solid;text-indent:0;text-orientation:mixed;text-transform:none;white-space:normal"/>
  <path d="m53.498 177.89c4.3378 16.902 2.4695 31.418-0.65241 45.451" fill="none" stop-color="#000000" stroke="#000" stroke-width="1.665" style="font-variation-settings:normal"/>
  <path transform="scale(.26458)" d="m277.64 719.57-131.78 17.715 2.7402 4.1699c10.168 15.527 20.804 22.481 31.217 25.977 10.413 3.4956 20.331 3.7742 29.697 6.5547l0.70899 0.20704 53.875-9.3692-0.16797-6.3594-53.471 9.2988c-10.034-2.8371-19.593-3.2595-28.641-6.2969-8.1328-2.7302-16.139-8.5196-24.391-19.391l120.32-16.17c-0.14246-2.2883-0.17738-4.3952-0.11133-6.3359zm5.3496 35.58-0.70313 0.12109 0.86524 0.5293c-0.0585-0.22481-0.10459-0.42723-0.16211-0.65039z" color="#000000" color-rendering="auto" dominant-baseline="auto" image-rendering="auto" shape-rendering="auto" solid-color="#000000" stop-color="#000000" style="font-feature-settings:normal;font-variant-alternates:normal;font-variant-caps:normal;font-variant-east-asian:normal;font-variant-ligatures:normal;font-variant-numeric:normal;font-variant-position:normal;font-variation-settings:normal;inline-size:0;isolation:auto;mix-blend-mode:normal;shape-margin:0;shape-padding:0;text-decoration-color:#000000;text-decoration-line:none;text-decoration-style:solid;text-indent:0;text-orientation:mixed;text-transform:none;white-space:normal"/>
  <path transform="scale(.26458)" d="m332.52 350.91c-3.2223-0.0385-6.5261 0.36962-9.916 1.2832-43.391 11.694-57.672 68.71-48.492 101.92l7.5527 7.582c-1.4992 4.5982-2.3161 8.4773-2.582 11.945 2.8535 0.84334 5.7888 1.7747 8.8203 2.8164 6.4645 1.232 5.8269 11.892 1.1016 13.441-1.8825 0.59754-3.721 1.1477-5.5352 1.6719 0.6575 1.1846 1.3731 2.3908 2.1484 3.6406 3.2877 3.12 6.0008 1.787 11.621 0.55078 4.5408-0.99872 10.503 1.0065 14.75 4.1738 3.6973 2.7575 8.1965 4.0434 13.148 4.4141-1.909-10.153-4.1924-18.867-6.5547-25.66 26.554-31.44 56.282-49.76 86.961-58.646-0.27703-0.4139-0.56045-0.84232-0.8379-1.2578-19.85 5.4622-39.325 14.823-57.824 29.09 7.6381-16.471 21.546-33.223 46.541-32.777 2.9874 0.0532 6.14 0.36518 9.4551 0.94532-20.566-30.898-42.442-64.799-70.357-65.133z" fill="#fff" stroke="#000" stroke-width="1px"/>
  <path d="m72.693 116.97c-0.67453 0.47668 2.6853 1.2259 4.5773 2.1639 1.8919 0.93806 8.0379 7.9433 5.3446 4.3497s-5.3558-5.1265-6.4022-5.7364c-1.0464-0.60995-2.8451-1.2539-3.5197-0.77724z" color="#000000" color-rendering="auto" dominant-baseline="auto" image-rendering="auto" shape-rendering="auto" solid-color="#000000" stop-color="#000000" style="font-feature-settings:normal;font-variant-alternates:normal;font-variant-caps:normal;font-variant-east-asian:normal;font-variant-ligatures:normal;font-variant-numeric:normal;font-variant-position:normal;font-variation-settings:normal;inline-size:0;isolation:auto;mix-blend-mode:normal;shape-margin:0;shape-padding:0;text-decoration-color:#000000;text-decoration-line:none;text-decoration-style:solid;text-indent:0;text-orientation:mixed;text-transform:none;white-space:normal"/>
  <path d="m77.691 114.73c-0.66042 0.62781-0.0047 1.0412 0.46423 1.2096 1.8523 0.40589 3.5933 1.8419 3.4869 3.6361-0.43538 0.4798 0.80634 1.003 0.74219 0.32031 0.28536-1.6485-0.50334-3.3981-1.7268-4.4962-1.5273-1.1262-2.3062-1.2977-2.9666-0.66985z" color="#000000" color-rendering="auto" dominant-baseline="auto" image-rendering="auto" shape-rendering="auto" solid-color="#000000" stop-color="#000000" style="font-feature-settings:normal;font-variant-alternates:normal;font-variant-caps:normal;font-variant-east-asian:normal;font-variant-ligatures:normal;font-variant-numeric:normal;font-variant-position:normal;font-variation-settings:normal;inline-size:0;isolation:auto;mix-blend-mode:normal;shape-margin:0;shape-padding:0;text-decoration-color:#000000;text-decoration-line:none;text-decoration-style:solid;text-indent:0;text-orientation:mixed;text-transform:none;white-space:normal"/>
  <path d="m73.3 119.85c0.92837 1.0815 1.3067 2.7497 3.9672 1.9836" fill="none" stroke="#000" stroke-width=".26458px"/>
  <path d="m102.78 103.82c1.0919 1.5263 2.1583 3.1038 3.2102 4.6824 0.79287-1.3051 1.9257-4.193-3.2102-4.6824z" fill="#fff" stroke="#000" stroke-width=".26458px"/>
  <path d="m80.924 89.088c1.1243 0.57721 1.4782 0.78626 2.1665 1.6352s1.548 2.5061 1.9703 1.5464-1.9514-3.0963-3.2916-3.8609c-1.1492-0.64528-1.9694 0.10202-0.84513 0.67923z" color="#000000" color-rendering="auto" dominant-baseline="auto" image-rendering="auto" shape-rendering="auto" solid-color="#000000" stop-color="#000000" style="font-feature-settings:normal;font-variant-alternates:normal;font-variant-caps:normal;font-variant-east-asian:normal;font-variant-ligatures:normal;font-variant-numeric:normal;font-variant-position:normal;font-variation-settings:normal;inline-size:0;isolation:auto;mix-blend-mode:normal;shape-margin:0;shape-padding:0;text-decoration-color:#000000;text-decoration-line:none;text-decoration-style:solid;text-indent:0;text-orientation:mixed;text-transform:none;white-space:normal"/>
  <path d="m82.774 84.628c2.8403 3.2432 3.5034 7.3902 4.3305 7.3507 0.8271-0.03953-0.75742-3.6686-1.6861-5.2147-0.9287-1.5461-5.4847-5.3792-2.6444-2.136z" color="#000000" color-rendering="auto" dominant-baseline="auto" image-rendering="auto" shape-rendering="auto" solid-color="#000000" stop-color="#000000" style="font-feature-settings:normal;font-variant-alternates:normal;font-variant-caps:normal;font-variant-east-asian:normal;font-variant-ligatures:normal;font-variant-numeric:normal;font-variant-position:normal;font-variation-settings:normal;inline-size:0;isolation:auto;mix-blend-mode:normal;shape-margin:0;shape-padding:0;text-decoration-color:#000000;text-decoration-line:none;text-decoration-style:solid;text-indent:0;text-orientation:mixed;text-transform:none;white-space:normal"/>
  <path d="m22.209 138.96c1.1757 4.5386-0.56108 3.9815 3.6675 4.6862l1.63 16.3 24.654 16.707 20.579-3.26 6.3162-29.34-13.855-15.485-0.20375-9.3725-41.769 5.0938c-15.112 2.0437-10.199 16.787-1.0188 14.67z" fill="#f7f6f5" stroke="#000" stroke-width=".26458px"/>
  <path d="m23.21 132.5a3.8815 5.0516 0 0 1-3.8815 5.0516 3.8815 5.0516 0 0 1-3.8815-5.0516 3.8815 5.0516 0 0 1 3.8815-5.0516 3.8815 5.0516 0 0 1 3.8815 5.0516z" fill="#2c001e" stop-color="#000000" stroke="#000" stroke-width=".26458px" style="font-variation-settings:normal"/>
  <g shape-rendering="auto">
   <path d="m61.176 121.58c-12.405 1.6594-24.819 3.2547-37.229 4.877-0.26583 0.71875 0.09376 1.8759 1.0156 1.752 12.406-1.6503 24.818-3.2541 37.229-4.873-0.38624-0.53847 0.01838-1.6161-0.84766-1.752-0.05491 0.0127-0.11308-0.0173-0.16797-4e-3z" color="#000000" color-rendering="auto" dominant-baseline="auto" image-rendering="auto" solid-color="#000000" stop-color="#000000" style="font-feature-settings:normal;font-variant-alternates:normal;font-variant-caps:normal;font-variant-east-asian:normal;font-variant-ligatures:normal;font-variant-numeric:normal;font-variant-position:normal;font-variation-settings:normal;inline-size:0;isolation:auto;mix-blend-mode:normal;shape-margin:0;shape-padding:0;text-decoration-color:#000000;text-decoration-line:none;text-decoration-style:solid;text-indent:0;text-orientation:mixed;text-transform:none;white-space:normal"/>
   <path d="m26.775 137.71c-0.45375 0.14815-0.96197 0.60013-0.57812 1.0976 5.9097 9.1914 11.76 18.433 17.648 27.643 0.54067-0.10098 1.1791-0.61545 0.82099-1.2117-5.919-9.1972-11.775-18.451-17.667-27.671-0.07487 0.0475-0.14974 0.095-0.22461 0.14258z" color="#000000" color-rendering="auto" dominant-baseline="auto" image-rendering="auto" solid-color="#000000" stop-color="#000000" style="font-feature-settings:normal;font-variant-alternates:normal;font-variant-caps:normal;font-variant-east-asian:normal;font-variant-ligatures:normal;font-variant-numeric:normal;font-variant-position:normal;font-variation-settings:normal;inline-size:0;isolation:auto;mix-blend-mode:normal;shape-margin:0;shape-padding:0;text-decoration-color:#000000;text-decoration-line:none;text-decoration-style:solid;text-indent:0;text-orientation:mixed;text-transform:none;white-space:normal"/>
   <path d="m50.922 130.35c-7.7838 1.1308-15.59 2.1779-23.383 3.2734-0.13278 0.53294 0.06491 1.3249 0.75625 1.25 7.7336-1.1163 15.49-2.1641 23.232-3.252-0.23544-0.40055 0.08197-1.2777-0.60547-1.2715z" color="#000000" color-rendering="auto" dominant-baseline="auto" image-rendering="auto" solid-color="#000000" stop-color="#000000" style="font-feature-settings:normal;font-variant-alternates:normal;font-variant-caps:normal;font-variant-east-asian:normal;font-variant-ligatures:normal;font-variant-numeric:normal;font-variant-position:normal;font-variation-settings:normal;inline-size:0;isolation:auto;mix-blend-mode:normal;shape-margin:0;shape-padding:0;text-decoration-color:#000000;text-decoration-line:none;text-decoration-style:solid;text-indent:0;text-orientation:mixed;text-transform:none;white-space:normal"/>
  </g>
  <path d="m40.264 85.946-26.803 12.324c11.296 6.8176 14.959 16.179 17.33 25.972l32.537-3.9677c-2.9403-12.77-11.27-24.162-23.064-34.328z" fill="#e7dfe5" stroke="#000" stroke-width=".26458px"/>
  <path d="m76.175 126.06c-27.158-9.3323-27.339 12.327 0.29127 3.5568 1.2502-0.40982 1.4191-3.2308-0.29127-3.5568z" fill="#474747" stroke="#000" stroke-width=".26458px"/>
  <g shape-rendering="auto">
   <path transform="scale(.26458)" d="m222.4 474.77a7.1403 7.1403 0 0 0-0.20507 2e-3l-1.0039 0.0215a7.1403 7.1403 0 0 0-6.9824 7.2949c0.0497 2.3213-0.20067 4.5798-0.67969 6.7852 2.662 3.0237 7.2922 5.6564 13.879 7.3047 1.3896-4.4734 2.1904-9.2696 2.0801-14.422a7.1403 7.1403 0 0 0-7.0879-6.9863z" color="#000000" color-rendering="auto" dominant-baseline="auto" fill="#a00" image-rendering="auto" solid-color="#000000" stop-color="#000000" style="font-feature-settings:normal;font-variant-alternates:normal;font-variant-caps:normal;font-variant-east-asian:normal;font-variant-ligatures:normal;font-variant-numeric:normal;font-variant-position:normal;font-variation-settings:normal;inline-size:0;isolation:auto;mix-blend-mode:normal;shape-margin:0;shape-padding:0;text-decoration-color:#000000;text-decoration-line:none;text-decoration-style:solid;text-indent:0;text-orientation:mixed;text-transform:none;white-space:normal"/>
   <path transform="scale(.26458)" d="m235.59 467.67c-2.5982 0.20446-4.9873 0.54483-7.1777 0.99414 2.4649 5.5387 4.0397 11.369 3.5508 17.562-0.82222 2.206-0.45148 5.247 2.252 5.8027 2.4933 0.82651 5.2335-1.4351 4.5938-4.0371 0.88732-7.0501-0.5996-13.865-3.2188-20.322z" color="#000000" color-rendering="auto" dominant-baseline="auto" fill="#800000" image-rendering="auto" solid-color="#000000" stop-color="#000000" style="font-feature-settings:normal;font-variant-alternates:normal;font-variant-caps:normal;font-variant-east-asian:normal;font-variant-ligatures:normal;font-variant-numeric:normal;font-variant-position:normal;font-variation-settings:normal;inline-size:0;isolation:auto;mix-blend-mode:normal;shape-margin:0;shape-padding:0;text-decoration-color:#000000;text-decoration-line:none;text-decoration-style:solid;text-indent:0;text-orientation:mixed;text-transform:none;white-space:normal"/>
   <path transform="scale(.26458)" d="m243.05 467.46c1.2072 8.0149 1.4334 16.152-0.45898 24.096 2.3517 2.0677 7.2925 1.7322 7.6172-1.9863 1.1709-7.2408 0.93125-14.519-0.0508-21.73-2.4896-0.22135-4.8534-0.34151-7.1074-0.37891z" color="#000000" color-rendering="auto" dominant-baseline="auto" fill="#f00" image-rendering="auto" solid-color="#000000" stop-color="#000000" style="font-feature-settings:normal;font-variant-alternates:normal;font-variant-caps:normal;font-variant-east-asian:normal;font-variant-ligatures:normal;font-variant-numeric:normal;font-variant-position:normal;font-variation-settings:normal;inline-size:0;isolation:auto;mix-blend-mode:normal;shape-margin:0;shape-padding:0;text-decoration-color:#000000;text-decoration-line:none;text-decoration-style:solid;text-indent:0;text-orientation:mixed;text-transform:none;white-space:normal"/>
   <path d="m61.82 96.982c-0.79116 3.8991 0.8184 4.0236 0.51654 7.5142-0.26723 2.2002-1.6074 4.0634-2.5216 6.0315-1.2274 2.2938-1.8848 5.11-0.84104 7.5981 0.52135 1.3681 1.3751 2.5778 2.2894 3.7097 1.0728-3.8146-1.3177-5.9531 0.14062-9.0449 1.2612-3.0168 3.5252-5.905 3.3474-9.364-0.05604-2.449-1.3082-4.6659-2.7145-6.597-0.07227 0.05078-0.14453 0.10156-0.2168 0.15234z" color="#000000" color-rendering="auto" dominant-baseline="auto" fill="#1a1a1a" image-rendering="auto" solid-color="#000000" stop-color="#000000" style="font-feature-settings:normal;font-variant-alternates:normal;font-variant-caps:normal;font-variant-east-asian:normal;font-variant-ligatures:normal;font-variant-numeric:normal;font-variant-position:normal;font-variation-settings:normal;inline-size:0;isolation:auto;mix-blend-mode:normal;shape-margin:0;shape-padding:0;text-decoration-color:#000000;text-decoration-line:none;text-decoration-style:solid;text-indent:0;text-orientation:mixed;text-transform:none;white-space:normal"/>
   <path d="m60.264 95.804c0.28449 1.402-0.29428 1.4468-0.18573 2.702 0.0961 0.79115 0.57798 1.4611 0.9067 2.1688 0.44133 0.82481 0.67772 1.8374 0.30242 2.7321-0.18747 0.49195-0.49445 0.92691-0.82323 1.3339-0.38578-1.3716 0.47381-2.1406-0.0506-3.2524-0.45349-1.0848-1.2676-2.1233-1.2036-3.3671 0.0202-0.88059 0.47041-1.6778 0.97609-2.3721 0.026 0.0183 0.052 0.0365 0.078 0.0548z" color="#000000" color-rendering="auto" dominant-baseline="auto" image-rendering="auto" solid-color="#000000" stop-color="#000000" style="font-feature-settings:normal;font-variant-alternates:normal;font-variant-caps:normal;font-variant-east-asian:normal;font-variant-ligatures:normal;font-variant-numeric:normal;font-variant-position:normal;font-variation-settings:normal;inline-size:0;isolation:auto;mix-blend-mode:normal;shape-margin:0;shape-padding:0;text-decoration-color:#000000;text-decoration-line:none;text-decoration-style:solid;text-indent:0;text-orientation:mixed;text-transform:none;white-space:normal"/>
   <path d="m63.644 114c0.01332 1.4306-0.56343 1.3647-0.69498 2.6176-0.05575 0.79502 0.29027 1.5442 0.47876 2.3014 0.27683 0.89356 0.31681 1.9326-0.22142 2.7399-0.2774 0.44745-0.66133 0.81627-1.0614 1.1535-0.11854-1.4199 0.87133-2.0118 0.56737-3.2029-0.23945-1.1511-0.84172-2.3252-0.54296-3.5343 0.1869-0.86076 0.78018-1.558 1.4084-2.1439 0.02206 0.0229 0.04413 0.0457 0.06619 0.0686z" color="#000000" color-rendering="auto" dominant-baseline="auto" fill="#1a1a1a" image-rendering="auto" solid-color="#000000" stop-color="#000000" style="font-feature-settings:normal;font-variant-alternates:normal;font-variant-caps:normal;font-variant-east-asian:normal;font-variant-ligatures:normal;font-variant-numeric:normal;font-variant-position:normal;font-variation-settings:normal;inline-size:0;isolation:auto;mix-blend-mode:normal;shape-margin:0;shape-padding:0;text-decoration-color:#000000;text-decoration-line:none;text-decoration-style:solid;text-indent:0;text-orientation:mixed;text-transform:none;white-space:normal"/>
  </g>
  <g fill="#2c001e" stroke="#000">
   <path transform="scale(.26458)" d="m184.01 506.54c-4.0005 0.11567-8.0192 2.6004-8.4316 7.4922-0.82484 9.7835-9.7002 19.418-3.4648 25.797s17.677 5.1098 22.523 0.96289c2.9745-2.5453 1.675-8.8873 0.0762-15.523-5.1382 1.7467-10.763 2.1059-16.078 0.92188-3.4953-0.67019-1.1497-6.5641 1.9082-4.9434 4.2284 1.2109 8.8901 0.66341 13.008-0.85157-0.57997-2.5251-1.0667-4.9707-1.2246-7.1328-0.33484-4.5844-4.3159-6.8383-8.3164-6.7226z" stop-color="#000000" stroke-width="1px" style="font-variation-settings:normal"/>
   <path d="m38.169 137.05c-1.0585 0.0306-2.1218 0.68802-2.2309 1.9823-0.21824 2.5886-2.5665 5.1377-0.91674 6.8254s4.6771 1.352 5.9593 0.25477c0.787-0.67344 0.44316-2.3514 0.02015-4.1072-1.3595 0.46215-2.8477 0.55718-4.254 0.24392-0.92479-0.17732-0.30418-1.7367 0.50488-1.3079 1.1188 0.32037 2.3522 0.17552 3.4416-0.22532-0.15345-0.66809-0.28223-1.3152-0.32401-1.8872-0.08859-1.2129-1.1419-1.8093-2.2004-1.7787z" stroke-width=".26458px"/>
   <g stroke-width=".26458px">
    <path d="m58.627 130.85c-1.0585 0.0306-2.1218 0.68802-2.2309 1.9823-0.21824 2.5886-2.5665 5.1377-0.91674 6.8254s4.6771 1.352 5.9593 0.25477c0.787-0.67344 0.44316-2.3514 0.02015-4.1072-1.3595 0.46215-2.8477 0.55718-4.254 0.24392-0.92479-0.17732-0.30418-1.7367 0.50488-1.3079 1.1188 0.32037 2.3522 0.17552 3.4416-0.22532-0.15345-0.66809-0.28223-1.3152-0.32401-1.8872-0.08859-1.2129-1.1419-1.8093-2.2004-1.7787z" stop-color="#000000" style="font-variation-settings:normal"/>
    <path d="m56.178 142.81c-1.0585 0.0306-2.1218 0.68802-2.2309 1.9823-0.21824 2.5886-2.5665 5.1377-0.91674 6.8254s4.6771 1.352 5.9593 0.25476c0.787-0.67344 0.44316-2.3514 0.02015-4.1072-1.3595 0.46215-2.8477 0.55718-4.254 0.24391-0.92479-0.17732-0.30418-1.7367 0.50488-1.3079 1.1188 0.32038 2.3522 0.17553 3.4416-0.22531-0.15345-0.66809-0.28223-1.3152-0.32401-1.8872-0.08859-1.213-1.1419-1.8093-2.2004-1.7787z" stop-color="#000000" style="font-variation-settings:normal"/>
    <path d="m45.66 145.83c-1.0585 0.0306-2.1218 0.68802-2.2309 1.9823-0.21824 2.5886-2.5665 5.1377-0.91674 6.8254s4.6771 1.352 5.9593 0.25477c0.787-0.67344 0.44316-2.3514 0.02015-4.1072-1.3595 0.46215-2.8477 0.55718-4.254 0.24392-0.92479-0.17732-0.30418-1.7367 0.50488-1.3079 1.1188 0.32037 2.3522 0.17552 3.4416-0.22532-0.15345-0.66809-0.28223-1.3152-0.32401-1.8872-0.08859-1.2129-1.1419-1.8093-2.2004-1.7787z" stop-color="#000000" style="font-variation-settings:normal"/>
    <path d="m66.119 139.64c-1.0585 0.0306-2.1218 0.68802-2.2309 1.9823-0.21824 2.5886-2.5665 5.1377-0.91674 6.8254s4.6771 1.352 5.9593 0.25477c0.787-0.67344 0.44316-2.3514 0.02015-4.1072-1.3595 0.46215-2.8477 0.55718-4.254 0.24392-0.92479-0.17732-0.30418-1.7367 0.50488-1.3079 1.1188 0.32037 2.3522 0.17552 3.4416-0.22532-0.15345-0.66809-0.28223-1.3152-0.32401-1.8872-0.08859-1.2129-1.1419-1.8093-2.2004-1.7787z" stop-color="#000000" style="font-variation-settings:normal"/>
   </g>
  </g>
 </g>
 <g transform="translate(-13.178 -83.363)" stroke="#000">
  <path d="m99.987 213.8 1.1526 5.4748c-11.438 2.5478-21.984-0.25882-31.12-11.526l-0.28815-10.95 5.1866 3.1696c-4.8274-18.547 3.063-15.898 11.814-11.814 19.842-16.061 40.493-28.075 61.872-36.452l2.0366-6.8343 8.2913 4.112 19.142-10.386c25.736 70.511-46.053 95.289-80.681 67.426l-0.28814 8.0681z" fill="#8e6885" stop-color="#000000" stroke-width=".26458px" style="font-variation-settings:normal"/>
  <path transform="scale(.26458)" d="m673.42 524.9c1.5392 4.2527 2.9808 8.4608 4.334 12.625 0.79017-2.6897-0.75414-7.0704-4.334-12.625z" fill="none" stroke-width="1px"/>
  <path transform="scale(.26458)" d="m452 413.33c-46.612 0.53449-93.58 18.205-133.41 65.363 12.232 35.177 22.456 121.38-11.473 196.52l17.164 34.326c0.23166 0.10563 0.46319 0.21193 0.69532 0.31836l10.953-5.2012c72.503-57.455 147.84-100.75 225.73-131.28l7.6973-25.832 31.338 15.543 72.109-39.125c-23.21-34.685-121.19-111.78-220.8-110.64z" stroke-width="1px"/>
  <path d="m84.293 126.65c-6.3588 7.5286-12.03 17.897-16.578 31.826l-2.2515-1.3126-2.6469 0.73639c-8.3527 3.3232-7.2472 11.957-8.6444 19.306l6.0513-0.57619c1.296 7.4066 6.0754 10.018 12.678 13.254 0.20058-0.0588 0.40134-0.13308 0.60203-0.22066 0.32257-3.5203 2.1005-4.6155 4.6436-4.4349 0.08518-0.12757 0.16719-0.26088 0.25063-0.39171 0.92859-1.9649 1.8824-4.0258 2.8598-6.1903 8.977-19.88 6.2718-42.689 3.0355-51.996z" fill="#8e6885" stroke-width=".26458px"/>
  <path d="m48.283 146.14c-3.7865 0.0624-7.5264 9.0496 1.3296 10.137-5.0008 3.4556-4.2774 4.1941-2.2412 9.3726-5.3804 4.1718 4.019 9.8696 6.9277 8.7612l0.2961 0.0367c0.84347-6.6329 0.89681-13.629 8.2202-16.543l0.6351-0.17673-4.3636-6.5448c-0.84531-2.4051-3.1623-3.3355-6.9272 0.91674-0.6708-4.422-2.278-5.9867-3.8768-5.9604z" fill="#fcede8" stroke-width=".26458px"/>
  <path d="m48.1 146.89c-1.9268 0.0404-3.8342 4.6124-1.791 7.0122 0.76617-2.1735 2.0553-3.7265 3.7592-4.7872-0.52046-1.6144-1.2454-2.2402-1.9682-2.2251z" fill="#dd4814" stroke-width=".19346px"/>
  <path d="m104.09 109.83c-6.6132-0.11783-10.293 4.3145-12.314 8.6723 5.2921-4.0814 10.886-6.6482 16.581-8.031-1.5418-0.41264-2.9627-0.61806-4.2669-0.6413z" fill="none" stroke-width=".26458px"/>
 </g>
 <g transform="translate(-13.178 -83.363)">
  <g fill="none" stroke="#000" stroke-linecap="round">
   <g>
    <path d="m71.38 199.29s3.3008 12.791 20.63 13.822" stop-color="#000000"/>
    <path d="m87.884 188.76s7.6331 3.9197 7.6331 6.189" stop-color="#000000"/>
    <path d="m85.202 197.43c1.8482 3.8198 6.2348 6.9454 10.315 8.6646" stop-color="#000000"/>
   </g>
   <path d="m65.191 158.44s-4.126 6.189-4.7449 16.504" stop-color="#000000" stroke-width=".6"/>
   <path d="m67.254 159.47s-1.6504 4.9512-1.6504 11.14" stop-color="#000000" stroke-width=".6"/>
  </g>
  <path d="m85.215 171.52c-0.76274 2.4559-1.6745 4.8983-2.758 7.2978l4.3424 8.6842 4.9661-4.9661z" fill="#fff" stop-color="#000000"/>
  <g fill="none" stroke="#000">
   <path transform="scale(.26458)" d="m182.49 552.34c-14.311 0.23583-28.446 34.203 5.0254 38.314-18.901 13.061-16.167 15.852-8.4707 35.424-20.336 15.768 15.19 37.303 26.184 33.113l1.1191 0.13867c3.1879-25.069 3.3895-51.511 31.068-62.523l2.4004-0.66796-16.492-24.736c-3.1949-9.09-11.952-12.606-26.182 3.4648-2.5353-16.713-8.6099-22.627-14.652-22.527z" stroke-width="1px"/>
   <path d="m48.1 146.89c-1.9268 0.0404-3.8342 4.6124-1.791 7.0122 0.76617-2.1735 2.0553-3.7265 3.7592-4.7872-0.52046-1.6144-1.2454-2.2402-1.9682-2.2251z" stroke-width=".19346px"/>
  </g>
  <g>
   <path d="m142.59 155.76-1.3534 6.7668 7.1358 5.4134 0.7382-5.9055c-5.6049-1.3468-5.4794-0.72103-6.5207-6.2746z" stroke="#000" stroke-width=".26458px"/>
   <path d="m163.39 148.25c2.438 7.0478 7.5415 9.7601 9.1044 1.7224 0 0-2.4117 3.621-3.5112 2.9337-1.0995-0.68726-3.8348-2.7879-5.5931-4.6562z" stroke="#000" stroke-width=".26458px"/>
   <path d="m147.18 154.01c-0.9417 1.1936-1.127 2.4667-0.84961 3.5098s0.98277 1.8602 1.8086 2.252c0.41291 0.19587 0.86409 0.28397 1.3066 0.20899 0.44254-0.075 0.86396-0.32577 1.168-0.73633 0.608-0.82114 0.79683-2.1924 0.40624-4.3066l-0.8496 0.1582c0.36829 1.9936 0.11751 3.1338-0.25196 3.6328-0.18473 0.24949-0.38454 0.36097-0.61718 0.40039-0.23265 0.0394-0.50933-4e-3 -0.79297-0.13867-0.56729-0.2691-1.1312-0.90135-1.3418-1.6934-0.21063-0.792-0.1027-1.741 0.69336-2.75z" color="#000000" color-rendering="auto" dominant-baseline="auto" image-rendering="auto" shape-rendering="auto" solid-color="#000000" stop-color="#000000" style="font-feature-settings:normal;font-variant-alternates:normal;font-variant-caps:normal;font-variant-east-asian:normal;font-variant-ligatures:normal;font-variant-numeric:normal;font-variant-position:normal;font-variation-settings:normal;inline-size:0;isolation:auto;mix-blend-mode:normal;shape-margin:0;shape-padding:0;text-decoration-color:#000000;text-decoration-line:none;text-decoration-style:solid;text-indent:0;text-orientation:mixed;text-transform:none;white-space:normal"/>
   <path d="m168.03 146.39-0.66406 0.043c0.0727 1.12 0.25653 1.9099 0.54101 2.4648s0.70542 0.88202 1.166 0.94531c0.4606 0.0633 0.90594-0.1133 1.2988-0.37695 0.39288-0.26365 0.74509-0.62534 1.0352-1.0098l-0.52929-0.40039c-0.25299 0.33528-0.56645 0.65101-0.87696 0.85938-0.3105 0.20837-0.60655 0.30105-0.83593 0.26953-0.22939-0.0315-0.44768-0.16395-0.66602-0.58984s-0.39955-1.1392-0.46875-2.2051z" color="#000000" color-rendering="auto" dominant-baseline="auto" image-rendering="auto" shape-rendering="auto" solid-color="#000000" stop-color="#000000" style="font-feature-settings:normal;font-variant-alternates:normal;font-variant-caps:normal;font-variant-east-asian:normal;font-variant-ligatures:normal;font-variant-numeric:normal;font-variant-position:normal;font-variation-settings:normal;inline-size:0;isolation:auto;mix-blend-mode:normal;shape-margin:0;shape-padding:0;text-decoration-color:#000000;text-decoration-line:none;text-decoration-style:solid;text-indent:0;text-orientation:mixed;text-transform:none;white-space:normal"/>
  </g>
  <g fill-opacity=".49789">
   <path transform="scale(.26458)" d="m710.4 787.28-124.68 43.838-132.88-11.02-35.082 8.8398 164.92 14.354 184.52-55.709z" fill="#b3b3b3" stop-color="#000000"/>
   <path transform="scale(.26458)" d="m763.31 803.15-72.523 7.5078-108.1 32.637-112.54-9.7949-54.801 5.6738 40.014 5.2088 31.374 1.1974 93.101 16.164z" fill="#ccc" stop-color="#000000"/>
   <path d="m197.96 218.53-16.074 0.37776-28.475 9.0935-24.302-4.2194-18.562 2.4608 41.135 5.5707z" fill="#ececec" stop-color="#000000" style="font-variation-settings:normal"/>
  </g>
 </g>
 <g transform="translate(-13.178 -83.363)" opacity=".34839" stroke="#000">
  <g fill="none" stroke-width=".26458px">
   <path d="m110.55 226.24 41.135 5.5704 46.277-13.283"/>
   <path d="m109.89 222.03 10.429 1.3456"/>
   <path d="m128.85 223.83 23.324 3.8127"/>
   <path d="m165.85 224.05c6.3918-2.3549 36.108-11.55 36.108-11.55"/>
   <path d="m203.08 208.35-45.528 13.569"/>
   <path d="m110.68 219.23 37.117 3.4762"/>
  </g>
  <path transform="scale(.26458)" d="m755.68 771.36c-39.637 0.31086-83.406 0.32606-124.39 1.1348-53.277 45.703-131.69 59.528-198.65 39.602l-20.688 4.6113 173.77 14.41z" fill="#f1e9f1" stroke-width="1px"/>
 </g>
 <g transform="translate(-13.178 -83.363)">
  <path transform="scale(.26458)" d="m398.97 888.11c5.252-8.1338 1.1526-21.622-3.2266-34.186-5.525-15.851-12.547-18.12-14.51-24.941m-70.104-6.0547c-4.0636 26.429-7.7854 57.644 44.6 69.598" fill="none" stop-color="#000000" stroke="#000" stroke-width="3.7795" style="font-variation-settings:normal"/>
  <path d="m82.319 217.73c-1.1157 7.2563-2.1368 15.878 13.43 18.751 12.939 2.3887 11.071-4.4882 8.9576-10.55-1.4618-4.1938-3.3197-4.7941-3.839-6.5991-6.5055 1.4023-12.72 1.058-18.548-1.602z" fill="#ececec" fill-opacity=".49789" stop-color="#000000" style="font-variation-settings:normal"/>
  <path d="m88.349 220.19s-0.0086 3.2128-0.51575 4.3195" fill="none" stop-color="#000000" stroke="#000" stroke-linecap="round"/>
 </g>
</svg>
